<svg width="800" height="600" xmlns="http://www.w3.org/2000/svg">
 <g id="Layer_1">
  <title>Layer 1</title>
  <ellipse stroke="#ffffff" ry="6" rx="6" id="svg_1" cy="60" cx="40" fill="#ffffff"/>
  <ellipse stroke="#ffffff" rx="6" ry="6" id="svg_2" cy="60" cx="10" fill="#ffffff"/>
  <ellipse ry="6" rx="6" id="svg_3" cy="60" cx="70" stroke="#ffffff" fill="#ffffff"/>
  <ellipse stroke="#ffffff" ry="6" rx="6" id="svg_4" cy="60" cx="100" fill="#ffffff"/>
  <ellipse ry="6" rx="6" id="svg_5" cy="60" cx="130" stroke="#ffffff" fill="#ffffff"/>
  <ellipse stroke="#ffffff" ry="6" rx="6" id="svg_12" cy="60" cx="160" fill="#ffffff"/>
  <ellipse stroke="#ffffff" ry="6" rx="6" id="svg_30" cy="90" cx="40" fill="#ffffff"/>
  <ellipse stroke="#ffffff" rx="6" ry="6" id="svg_31" cy="90" cx="10" fill="#ffffff"/>
  <ellipse ry="6" rx="6" id="svg_32" cy="90" cx="70" stroke="#ffffff" fill="#ffffff"/>
  <ellipse stroke="#ffffff" ry="6" rx="6" id="svg_33" cy="90" cx="100" fill="#ffffff"/>
  <ellipse ry="6" rx="6" id="svg_34" cy="90" cx="130" stroke="#ffffff" fill="#ffffff"/>
  <ellipse stroke="#ffffff" ry="6" rx="6" id="svg_38" cy="90" cx="100" fill="#ffffff"/>
  <ellipse ry="6" rx="6" id="svg_39" cy="90" cx="130" stroke="#ffffff" fill="#ffffff"/>
  <ellipse stroke="#ffffff" ry="6" rx="6" id="svg_40" cy="90" cx="160" fill="#ffffff"/>
  <ellipse stroke="#ffffff" ry="6" rx="6" id="svg_41" cy="120" cx="40" fill="#ffffff"/>
  <ellipse stroke="#ffffff" rx="6" ry="6" id="svg_42" cy="120" cx="10" fill="#ffffff"/>
  <ellipse ry="6" rx="6" id="svg_43" cy="120" cx="70" stroke="#ffffff" fill="#ffffff"/>
  <ellipse stroke="#ffffff" ry="6" rx="6" id="svg_44" cy="120" cx="100" fill="#ffffff"/>
  <ellipse ry="6" rx="6" id="svg_45" cy="120" cx="130" stroke="#ffffff" fill="#ffffff"/>
  <ellipse stroke="#ffffff" ry="6" rx="6" id="svg_46" cy="120" cx="40" fill="#ffffff"/>
  <ellipse stroke="#ffffff" rx="6" ry="6" id="svg_47" cy="120" cx="10" fill="#ffffff"/>
  <ellipse ry="6" rx="6" id="svg_48" cy="120" cx="70" stroke="#ffffff" fill="#ffffff"/>
  <ellipse stroke="#ffffff" ry="6" rx="6" id="svg_49" cy="120" cx="100" fill="#ffffff"/>
  <ellipse ry="6" rx="6" id="svg_50" cy="120" cx="130" stroke="#ffffff" fill="#ffffff"/>
  <ellipse stroke="#ffffff" ry="6" rx="6" id="svg_51" cy="120" cx="160" fill="#ffffff"/>
  <ellipse stroke="#ffffff" ry="6" rx="6" id="svg_52" cy="150" cx="40" fill="#ffffff"/>
  <ellipse stroke="#ffffff" rx="6" ry="6" id="svg_53" cy="150" cx="10" fill="#ffffff"/>
  <ellipse ry="6" rx="6" id="svg_54" cy="150" cx="70" stroke="#ffffff" fill="#ffffff"/>
  <ellipse stroke="#ffffff" ry="6" rx="6" id="svg_55" cy="150" cx="100" fill="#ffffff"/>
  <ellipse ry="6" rx="6" id="svg_56" cy="150" cx="130" stroke="#ffffff" fill="#ffffff"/>
  <ellipse stroke="#ffffff" ry="6" rx="6" id="svg_57" cy="150" cx="40" fill="#ffffff"/>
  <ellipse ry="6" rx="6" id="svg_59" cy="150" cx="70" stroke="#ffffff" fill="#ffffff"/>
  <ellipse stroke="#ffffff" ry="6" rx="6" id="svg_60" cy="150" cx="100" fill="#ffffff"/>
  <ellipse ry="6" rx="6" id="svg_61" cy="150" cx="130" stroke="#ffffff" fill="#ffffff"/>
  <ellipse stroke="#ffffff" ry="6" rx="6" id="svg_62" cy="150" cx="160" fill="#ffffff"/>
  <ellipse stroke="#ffffff" ry="6" rx="6" id="svg_99" cy="180" cx="40" fill="#ffffff"/>
  <ellipse stroke="#ffffff" rx="6" ry="6" id="svg_100" cy="180" cx="10" fill="#ffffff"/>
  <ellipse ry="6" rx="6" id="svg_101" cy="180" cx="70" stroke="#ffffff" fill="#ffffff"/>
  <ellipse stroke="#ffffff" ry="6" rx="6" id="svg_102" cy="180" cx="100" fill="#ffffff"/>
  <ellipse ry="6" rx="6" id="svg_103" cy="180" cx="130" stroke="#ffffff" fill="#ffffff"/>
  <ellipse stroke="#ffffff" ry="6" rx="6" id="svg_104" cy="180" cx="160" fill="#ffffff"/>
  <ellipse stroke="#ffffff" ry="6" rx="6" id="svg_105" cy="210" cx="40" fill="#ffffff"/>
  <ellipse stroke="#ffffff" rx="6" ry="6" id="svg_106" cy="210" cx="10" fill="#ffffff"/>
  <ellipse ry="6" rx="6" id="svg_107" cy="210" cx="70" stroke="#ffffff" fill="#ffffff"/>
  <ellipse stroke="#ffffff" ry="6" rx="6" id="svg_108" cy="210" cx="100" fill="#ffffff"/>
  <ellipse ry="6" rx="6" id="svg_109" cy="210" cx="130" stroke="#ffffff" fill="#ffffff"/>
  <ellipse stroke="#ffffff" ry="6" rx="6" id="svg_110" cy="210" cx="100" fill="#ffffff"/>
  <ellipse ry="6" rx="6" id="svg_111" cy="210" cx="130" stroke="#ffffff" fill="#ffffff"/>
  <ellipse stroke="#ffffff" ry="6" rx="6" id="svg_112" cy="210" cx="160" fill="#ffffff"/>
  <ellipse stroke="#ffffff" ry="6" rx="6" id="svg_113" cy="240" cx="40" fill="#ffffff"/>
  <ellipse stroke="#ffffff" rx="6" ry="6" id="svg_114" cy="240" cx="10" fill="#ffffff"/>
  <ellipse ry="6" rx="6" id="svg_115" cy="240" cx="70" stroke="#ffffff" fill="#ffffff"/>
  <ellipse stroke="#ffffff" ry="6" rx="6" id="svg_116" cy="240" cx="100" fill="#ffffff"/>
  <ellipse ry="6" rx="6" id="svg_117" cy="240" cx="130" stroke="#ffffff" fill="#ffffff"/>
  <ellipse stroke="#ffffff" ry="6" rx="6" id="svg_118" cy="240" cx="40" fill="#ffffff"/>
  <ellipse stroke="#ffffff" rx="6" ry="6" id="svg_119" cy="240" cx="10" fill="#ffffff"/>
  <ellipse ry="6" rx="6" id="svg_120" cy="240" cx="70" stroke="#ffffff" fill="#ffffff"/>
  <ellipse stroke="#ffffff" ry="6" rx="6" id="svg_121" cy="240" cx="100" fill="#ffffff"/>
  <ellipse ry="6" rx="6" id="svg_122" cy="240" cx="130" stroke="#ffffff" fill="#ffffff"/>
  <ellipse stroke="#ffffff" ry="6" rx="6" id="svg_123" cy="240" cx="160" fill="#ffffff"/>
  <ellipse stroke="#ffffff" ry="6" rx="6" id="svg_124" cy="270" cx="40" fill="#ffffff"/>
  <ellipse stroke="#ffffff" rx="6" ry="6" id="svg_125" cy="270" cx="10" fill="#ffffff"/>
  <ellipse ry="6" rx="6" id="svg_126" cy="270" cx="70" stroke="#ffffff" fill="#ffffff"/>
  <ellipse stroke="#ffffff" ry="6" rx="6" id="svg_127" cy="270" cx="100" fill="#ffffff"/>
  <ellipse ry="6" rx="6" id="svg_128" cy="270" cx="130" stroke="#ffffff" fill="#ffffff"/>
  <ellipse stroke="#ffffff" ry="6" rx="6" id="svg_129" cy="270" cx="40" fill="#ffffff"/>
  <ellipse ry="6" rx="6" id="svg_130" cy="270" cx="70" stroke="#ffffff" fill="#ffffff"/>
  <ellipse stroke="#ffffff" ry="6" rx="6" id="svg_131" cy="270" cx="100" fill="#ffffff"/>
  <ellipse ry="6" rx="6" id="svg_132" cy="270" cx="130" stroke="#ffffff" fill="#ffffff"/>
  <ellipse stroke="#ffffff" ry="6" rx="6" id="svg_133" cy="270" cx="160" fill="#ffffff"/>
 </g>
</svg>